<?xml version="1.0" standalone="no"?>
<!DOCTYPE svg PUBLIC "-//W3C//DTD SVG 20010904//EN"
 "http://www.w3.org/TR/2001/REC-SVG-20010904/DTD/svg10.dtd">
<svg version="1.0" xmlns="http://www.w3.org/2000/svg"
 width="680.000000pt" height="555.000000pt" viewBox="0 0 680.000000 555.000000"
 preserveAspectRatio="xMidYMid meet">

<g transform="translate(0.000000,555.000000) scale(0.100000,-0.100000)"
fill="#000000" stroke="none">
<path d="M2599 4820 c-138 -17 -313 -71 -438 -134 -225 -114 -446 -337 -561
-565 -26 -53 -30 -68 -20 -85 9 -17 6 -32 -14 -79 -36 -80 -65 -195 -78 -312
-10 -87 -15 -104 -41 -134 -16 -19 -39 -55 -50 -80 -20 -43 -22 -62 -22 -257
l0 -211 35 -68 c60 -117 182 -195 306 -195 50 0 59 3 90 34 l34 34 0 407 0
407 -35 35 c-35 35 -36 36 -103 30 -37 -3 -78 -9 -91 -13 -23 -7 -23 -6 -16
47 10 80 42 202 68 256 20 43 26 48 62 53 55 7 61 12 143 122 191 256 464 407
791 438 256 24 528 -46 742 -191 83 -56 205 -173 254 -245 69 -99 97 -124 143
-124 l39 0 31 -82 c37 -97 48 -141 58 -222 7 -59 7 -59 -17 -52 -13 4 -54 10
-91 13 -67 6 -68 5 -103 -30 l-35 -35 0 -407 0 -407 35 -35 c35 -35 36 -36
108 -31 126 8 230 79 294 200 27 52 28 57 31 251 4 226 -4 264 -67 345 -34 43
-38 55 -45 129 -8 100 -45 252 -82 333 -26 58 -26 61 -9 74 17 12 16 18 -24
92 -190 353 -522 603 -901 679 -91 18 -330 27 -421 15z"/>
<path d="M2614 4439 c-330 -55 -603 -297 -685 -605 -18 -70 -21 -118 -26 -404
-8 -470 10 -586 115 -763 109 -183 296 -305 533 -348 116 -21 344 -16 463 9
326 69 552 318 596 654 8 57 10 208 8 440 -4 327 -6 358 -27 426 -79 266 -284
470 -561 560 -123 40 -289 52 -416 31z"/>
<path d="M2234 2222 c-10 -68 -40 -148 -74 -202 -46 -72 -137 -153 -210 -187
-36 -17 -195 -70 -355 -117 -192 -58 -316 -101 -367 -128 -144 -75 -262 -209
-334 -378 -65 -155 -93 -280 -124 -555 -11 -99 -31 -229 -45 -290 -14 -60 -25
-113 -25 -117 0 -5 927 -8 2061 -8 1958 0 2060 1 2055 18 -15 50 -47 233 -61
347 -31 255 -46 346 -71 433 -74 256 -173 409 -330 512 -93 61 -127 74 -459
175 -309 95 -388 131 -469 210 -62 61 -122 172 -131 243 -13 100 -7 96 -74 57
-33 -19 -108 -52 -168 -72 l-108 -38 -180 1 c-167 0 -186 2 -270 28 -49 15
-127 47 -172 71 l-82 43 -7 -46z"/>
<path d="M4532 1813 c-16 -6 -40 -53 -59 -116 l-15 -51 51 -44 c64 -55 162
-184 206 -273 64 -127 120 -351 166 -666 l12 -83 401 0 c401 0 401 0 429 23
23 19 41 65 118 307 50 157 128 403 175 547 46 144 84 274 84 288 0 14 -11 37
-25 50 l-24 25 -753 -1 c-414 0 -759 -3 -766 -6z"/>
<path d="M5378 511 c-9 -3 -26 -19 -39 -34 l-22 -29 -191 2 c-232 2 -215 4
-211 -17 2 -10 6 -30 10 -45 l5 -28 576 0 576 0 29 29 c36 36 37 73 5 106
l-25 25 -348 -2 c-191 0 -356 -3 -365 -7z"/>
</g>
</svg>
